<?xml version="1.0" standalone="no"?>
<!DOCTYPE svg PUBLIC "-//W3C//DTD SVG 20010904//EN"
 "http://www.w3.org/TR/2001/REC-SVG-20010904/DTD/svg10.dtd">
<svg version="1.0" xmlns="http://www.w3.org/2000/svg"
 width="3161.000000pt" height="3161.000000pt" viewBox="0 0 3161.000000 3161.000000"
 preserveAspectRatio="xMidYMid meet">

<g transform="translate(0.000000,3161.000000) scale(0.100000,-0.100000)"
fill="#000000" stroke="none">
<path d="M12311 20589 c-121 -23 -233 -78 -324 -159 -66 -57 -62 -75 4 -21
132 108 282 160 454 161 149 0 251 -36 375 -134 55 -43 61 -46 37 -18 -69 84
-175 148 -285 171 -61 13 -196 13 -261 0z"/>
<path d="M18309 20129 c-67 -7 -193 -39 -252 -64 -17 -7 -42 -27 -54 -43 l-22
-29 54 29 c78 42 233 79 335 81 96 1 160 -16 234 -63 52 -34 62 -25 15 15 -46
38 -101 64 -151 70 -83 11 -94 12 -159 4z"/>
<path d="M11821 19960 c-1 -57 31 -191 63 -263 89 -202 281 -353 461 -365 91
-6 146 7 249 59 115 59 185 109 255 185 92 101 162 256 160 359 l0 40 -15 -55
c-21 -79 -75 -186 -131 -255 -56 -70 -147 -134 -292 -207 -123 -61 -189 -71
-287 -43 -230 66 -396 260 -449 525 -13 64 -13 64 -14 20z"/>
<path d="M18737 19487 c-20 -234 -151 -698 -303 -1071 -41 -99 -43 -110 -29
-126 8 -9 12 -19 9 -23 -6 -6 123 -142 521 -547 133 -135 272 -279 309 -320
l68 -75 -63 80 c-35 44 -165 184 -289 310 -124 127 -294 301 -379 389 l-152
158 6 40 c4 22 29 97 55 167 144 382 241 757 257 999 7 109 -1 125 -10 19z"/>
<path d="M17712 19070 c-4 -268 57 -633 162 -968 20 -63 36 -126 37 -140 1
-27 1 -27 15 6 14 31 12 40 -30 165 -101 299 -160 600 -176 892 -6 131 -7 134
-8 45z"/>
<path d="M15396 19004 c-188 -34 -378 -117 -558 -244 -93 -65 -294 -256 -359
-340 -18 -25 25 14 96 86 244 244 463 378 735 449 128 33 371 46 498 25 236
-38 353 -94 536 -254 68 -60 76 -64 48 -29 -41 53 -128 128 -217 187 -78 52
-205 97 -341 121 -108 19 -331 18 -438 -1z"/>
<path d="M15710 18721 c-53 -17 -107 -51 -146 -93 -56 -59 -78 -93 -142 -217
-30 -58 -70 -135 -88 -171 -73 -140 -160 -452 -228 -810 -82 -433 -178 -1235
-175 -1455 2 -86 2 -84 10 45 11 170 60 609 100 890 58 415 137 792 216 1040
39 120 183 417 253 519 128 189 312 220 456 76 63 -63 94 -165 113 -365 l8
-85 2 82 c1 100 -13 208 -44 327 -20 78 -28 94 -62 122 -87 75 -207 117 -273
95z"/>
<path d="M12197 18649 c-152 -21 -310 -93 -642 -294 -435 -263 -674 -375
-1035 -484 -533 -161 -1113 -233 -2095 -261 -1083 -30 -1370 -48 -1810 -111
-282 -40 -502 -84 -860 -173 -954 -236 -1579 -474 -1910 -724 -73 -56 -206
-183 -248 -237 -18 -24 6 -5 59 46 113 108 166 151 284 229 325 213 933 436
1755 643 425 107 715 164 1055 206 371 46 670 64 1455 86 540 15 800 26 1035
46 665 54 1173 161 1620 341 186 75 387 180 650 339 392 237 520 295 706 320
212 28 472 -36 656 -162 33 -22 62 -38 64 -36 11 11 -94 89 -169 126 -182 89
-389 125 -570 100z"/>
<path d="M12932 18317 c-32 -38 -42 -108 -40 -276 l1 -166 7 135 c4 102 11
151 29 202 25 74 27 134 3 105z"/>
<path d="M16517 18198 c-38 -78 -120 -166 -182 -195 -64 -29 -117 -29 -184 2
-30 14 -56 23 -58 21 -10 -10 30 -68 59 -86 101 -61 235 -12 325 119 41 59 78
156 71 184 -2 7 -16 -14 -31 -45z"/>
<path d="M11780 18088 c-135 -122 -384 -261 -654 -367 -539 -211 -1383 -373
-2071 -396 -941 -31 -1963 -110 -2583 -200 -499 -73 -851 -234 -1198 -550
-223 -203 -454 -546 -549 -815 -62 -177 -168 -359 -272 -467 -221 -229 -483
-241 -771 -36 -125 89 -239 290 -277 491 l-15 77 5 -80 c14 -224 147 -471 314
-585 263 -178 510 -165 721 36 124 119 209 256 300 484 143 359 354 653 643
896 277 233 607 384 981 449 533 93 1455 169 2656 220 467 20 766 55 1195 140
597 118 1017 263 1360 470 71 42 142 81 158 86 42 12 76 -5 83 -41 4 -16 10
-30 14 -30 7 0 25 258 18 265 -1 1 -28 -19 -58 -47z"/>
<path d="M12884 17665 c0 -88 2 -123 3 -77 2 46 2 118 0 160 -1 42 -3 5 -3
-83z"/>
<path d="M16362 17770 c-53 -11 -54 -12 -94 -63 l-33 -42 33 27 c102 84 297
72 427 -28 51 -38 53 -24 4 21 -84 76 -219 110 -337 85z"/>
<path d="M11812 17720 c0 -14 2 -19 5 -12 2 6 2 18 0 25 -3 6 -5 1 -5 -13z"/>
<path d="M18081 17462 c-21 -43 -72 -134 -111 -202 -304 -523 -610 -867 -895
-1005 -111 -54 -166 -67 -274 -64 l-84 3 -23 -104 c-85 -376 -245 -833 -406
-1154 -218 -436 -463 -723 -723 -847 -113 -54 -181 -70 -330 -76 -291 -12
-500 71 -711 281 -237 237 -410 609 -524 1121 -39 177 -77 431 -90 600 -6 77
-13 169 -16 204 l-6 65 -152 -300 c-352 -693 -706 -1267 -963 -1561 l-53 -62
-16 -133 c-40 -353 -127 -908 -200 -1283 -310 -1579 -821 -2663 -1379 -2926
-231 -109 -476 -170 -685 -170 -149 -1 -244 18 -347 68 -223 108 -346 340
-376 708 -2 26 -4 17 -5 -24 -4 -150 53 -392 119 -508 80 -139 202 -240 352
-290 76 -25 94 -27 252 -28 195 0 290 16 493 86 231 80 345 149 493 300 575
584 1015 1907 1268 3814 17 127 35 246 41 265 13 46 49 103 143 223 219 280
486 712 766 1242 203 385 236 388 286 32 142 -1027 498 -1639 1033 -1778 98
-26 264 -35 366 -20 366 52 686 355 965 912 143 285 277 646 372 1003 59 223
71 235 256 269 315 58 681 422 1048 1042 49 82 99 159 113 172 33 31 73 29
106 -4 105 -105 756 -1551 756 -1680 l0 -42 -57 -11 c-400 -77 -748 -220 -998
-408 -88 -67 -201 -169 -227 -205 -13 -19 19 5 77 56 295 260 679 440 1103
518 85 16 123 27 139 43 l23 21 -69 180 c-184 486 -421 1015 -673 1503 -66
127 -124 232 -129 232 -5 0 -26 -35 -48 -78z"/>
<path d="M11802 17510 c0 -14 2 -19 5 -12 2 6 2 18 0 25 -3 6 -5 1 -5 -13z"/>
<path d="M12874 17285 c0 -88 2 -123 3 -77 2 46 2 118 0 160 -1 42 -3 5 -3
-83z"/>
<path d="M19325 17300 c10 -11 20 -20 23 -20 3 0 -3 9 -13 20 -10 11 -20 20
-23 20 -3 0 3 -9 13 -20z"/>
<path d="M11792 17290 c0 -14 2 -19 5 -12 2 6 2 18 0 25 -3 6 -5 1 -5 -13z"/>
<path d="M16051 17085 c-6 -199 88 -467 249 -710 41 -60 79 -130 86 -155 l11
-45 12 53 c15 72 17 65 -38 135 -164 209 -270 436 -300 637 -6 41 -13 86 -15
100 -2 15 -4 8 -5 -15z"/>
<path d="M11782 17060 c0 -14 2 -19 5 -12 2 6 2 18 0 25 -3 6 -5 1 -5 -13z"/>
<path d="M12864 16915 c0 -88 2 -123 3 -77 2 46 2 118 0 160 -1 42 -3 5 -3
-83z"/>
<path d="M16867 16867 c-4 -54 -16 -150 -27 -215 -19 -110 -20 -118 -3 -129 9
-7 25 -13 35 -13 35 0 149 50 221 96 79 51 233 202 286 279 l33 50 -53 -60
c-134 -152 -252 -247 -377 -301 -86 -38 -107 -41 -116 -18 -9 23 -7 101 5 211
6 54 9 121 7 148 -2 38 -5 27 -11 -48z"/>
<path d="M11772 16840 c0 -14 2 -19 5 -12 2 6 2 18 0 25 -3 6 -5 1 -5 -13z"/>
<path d="M12854 16535 c0 -88 2 -123 3 -77 2 46 2 118 0 160 -1 42 -3 5 -3
-83z"/>
<path d="M11762 16615 c0 -16 2 -22 5 -12 2 9 2 23 0 30 -3 6 -5 -1 -5 -18z"/>
<path d="M11752 16395 c0 -16 2 -22 5 -12 2 9 2 23 0 30 -3 6 -5 -1 -5 -18z"/>
<path d="M12844 16165 c0 -88 2 -123 3 -77 2 46 2 118 0 160 -1 42 -3 5 -3
-83z"/>
<path d="M11742 16175 c0 -16 2 -22 5 -12 2 9 2 23 0 30 -3 6 -5 -1 -5 -18z"/>
<path d="M11732 15960 c0 -14 2 -19 5 -12 2 6 2 18 0 25 -3 6 -5 1 -5 -13z"/>
<path d="M12834 15790 c0 -91 2 -128 3 -82 2 45 2 119 0 165 -1 45 -3 8 -3
-83z"/>
<path d="M14924 15765 c0 -66 1 -92 3 -57 2 34 2 88 0 120 -2 31 -3 3 -3 -63z"/>
<path d="M11722 15725 c0 -16 2 -22 5 -12 2 9 2 23 0 30 -3 6 -5 -1 -5 -18z"/>
<path d="M20110 15573 c0 -12 8 -26 18 -31 9 -5 89 -6 177 -3 665 25 1834
-110 3330 -384 1350 -247 2398 -503 2875 -702 100 -42 245 -83 370 -104 99
-17 420 -17 535 0 394 58 855 221 1029 365 249 206 565 374 822 436 61 15 104
20 128 16 50 -10 171 -93 274 -189 55 -53 75 -68 55 -42 -88 113 -286 265
-345 265 -43 0 -178 -36 -288 -77 -196 -73 -456 -226 -632 -371 -169 -140
-595 -299 -973 -364 -105 -18 -170 -22 -340 -22 -288 0 -432 28 -685 134 -144
61 -272 104 -525 175 -1113 315 -3220 706 -4522 840 -401 41 -518 48 -897 51
-309 2 -391 5 -397 16 -6 9 -9 7 -9 -9z"/>
<path d="M12817 15326 c-4 -137 -6 -250 -5 -252 2 -2 22 34 45 79 39 76 41 82
23 85 -35 6 -44 41 -50 192 l-5 145 -8 -249z"/>
<path d="M11711 15494 c0 -11 3 -14 6 -6 3 7 2 16 -1 19 -3 4 -6 -2 -5 -13z"/>
<path d="M11702 15275 c0 -16 2 -22 5 -12 2 9 2 23 0 30 -3 6 -5 -1 -5 -18z"/>
<path d="M20335 15139 c-60 -4 -128 -14 -150 -21 l-40 -13 -8 -95 c-26 -317
-79 -531 -187 -755 -233 -484 -695 -782 -1309 -844 -145 -15 -285 -13 -361 5
-341 80 -691 531 -764 984 l-16 95 6 -93 c22 -393 313 -854 639 -1012 117 -57
219 -74 380 -66 920 46 1506 587 1605 1481 7 55 16 116 22 135 15 52 55 89
113 105 253 69 1433 -32 3135 -271 730 -102 970 -148 1614 -310 671 -169 1142
-326 1648 -548 262 -115 906 -292 1328 -366 545 -95 897 -98 1250 -13 137 33
242 72 370 139 225 117 430 314 430 414 0 21 -4 19 -37 -21 -100 -121 -271
-258 -412 -329 -276 -138 -689 -209 -1056 -181 -294 23 -632 79 -970 161 -420
102 -780 215 -992 314 -359 166 -926 351 -1583 516 -563 141 -844 197 -1385
275 -1239 178 -2224 287 -2840 315 -242 11 -270 11 -430 -1z"/>
<path d="M18640 15090 c-395 -38 -642 -177 -710 -398 -15 -48 -20 -89 -19
-166 l2 -101 7 80 c5 44 15 99 23 121 86 234 363 368 809 390 167 8 224 -3
267 -52 38 -42 42 -60 77 -288 17 -116 31 -180 35 -168 8 21 -72 567 -85 579
-9 10 -319 12 -406 3z"/>
<path d="M11692 15055 c0 -16 2 -22 5 -12 2 9 2 23 0 30 -3 6 -5 -1 -5 -18z"/>
<path d="M11682 14840 c0 -14 2 -19 5 -12 2 6 2 18 0 25 -3 6 -5 1 -5 -13z"/>
<path d="M15141 14737 c25 -45 101 -115 156 -141 151 -74 383 -45 437 54 l18
35 -23 -28 c-40 -46 -127 -71 -249 -72 -98 0 -110 2 -173 32 -42 20 -88 53
-122 87 -30 30 -50 45 -44 33z"/>
<path d="M11672 14605 c0 -16 2 -22 5 -12 2 9 2 23 0 30 -3 6 -5 -1 -5 -18z"/>
<path d="M11662 14390 c0 -14 2 -19 5 -12 2 6 2 18 0 25 -3 6 -5 1 -5 -13z"/>
<path d="M11651 14199 c-1 -20 -39 -61 -168 -181 -212 -195 -442 -441 -616
-660 -78 -97 -26 -43 104 109 151 176 437 468 575 586 91 77 120 118 111 154
-3 13 -5 10 -6 -8z"/>
<path d="M18070 13990 c21 -40 111 -124 165 -154 96 -53 191 -79 295 -80 86
-1 101 2 160 30 68 32 173 121 202 171 11 19 -6 6 -50 -36 -94 -92 -175 -133
-273 -139 -160 -9 -338 58 -450 171 -34 34 -56 51 -49 37z"/>
<path d="M11547 13569 c-142 -94 -522 -572 -729 -916 -253 -421 -465 -953
-599 -1500 -50 -206 -69 -334 -67 -453 l1 -95 7 100 c30 416 300 1219 579
1724 158 285 408 638 629 887 125 140 204 170 234 87 l13 -36 12 89 c17 136
17 144 -10 144 -13 0 -44 -14 -70 -31z"/>
<path d="M10809 13283 c-13 -16 -12 -17 4 -4 16 13 21 21 13 21 -2 0 -10 -8
-17 -17z"/>
<path d="M10152 10575 c0 -16 2 -22 5 -12 2 9 2 23 0 30 -3 6 -5 -1 -5 -18z"/>
<path d="M10844 10523 c-50 -58 -181 -151 -278 -197 -57 -27 -156 -56 -191
-56 -42 0 -97 22 -132 53 l-36 32 16 -30 c38 -75 157 -96 282 -51 74 27 207
104 266 154 36 31 136 152 126 152 -3 0 -26 -25 -53 -57z"/>
</g>
</svg>
